<svg width="472" height="107" viewBox="0 0 472 107" fill="none" xmlns="http://www.w3.org/2000/svg">
<path d="M95.8332 58.3333V62.4999H91.6665V70.8333H87.4998V79.1666H83.3332V83.3333H79.1665V87.4999H70.8332V91.6666H62.4998V95.8333H37.4998V91.6666H29.1665V87.4999H20.8332V83.3333H12.4998V87.4999H8.33317V91.6666H4.1665V58.3333H37.4998V62.4999H33.3332V66.6666H29.1665V74.9999H33.3332V79.1666H41.6665V83.3333H58.3332V79.1666H66.6665V74.9999H70.8332V70.8333H74.9998V62.4999H79.1665V58.3333H95.8332Z" fill="#6FEB44"/>
<path d="M95.8332 8.33341V41.6667H62.4998V37.5001H66.6665V33.3334H70.8332V25.0001H66.6665V20.8334H58.3332V16.6667H41.6665V20.8334H33.3332V25.0001H29.1665V29.1667H24.9998V37.5001H20.8332V41.6667H4.1665V37.5001H8.33317V29.1667H12.4998V20.8334H16.6665V16.6667H20.8332V12.5001H29.1665V8.33341H37.4998V4.16675H62.4998V8.33341H70.8332V12.5001H79.1665V16.6667H87.4998V12.5001H91.6665V8.33341H95.8332Z" fill="#6FEB44"/>
<path d="M115.961 87V13.6667H155.961V20.3333H162.628V53.6667H155.961V67H162.628V87H149.294V73.6667H142.628V60.3333H129.294V87H115.961ZM129.294 47H149.294V27H129.294V47ZM169.32 80.3333V40.3333H175.987V33.6667H209.32V40.3333H215.987V67H182.654V73.6667H215.987V87H175.987V80.3333H169.32ZM182.654 53.6667H202.654V47H182.654V53.6667ZM222.68 47V33.6667H229.346V20.3333H236.013V13.6667H256.013V27H242.68V33.6667H256.013V47H242.68V87H229.346V47H222.68ZM262.68 87V33.6667H276.013V40.3333H282.68V33.6667H296.013V47H282.68V53.6667H276.013V87H262.68ZM302.68 80.3333V40.3333H309.346V33.6667H342.68V40.3333H349.346V67H316.013V73.6667H349.346V87H309.346V80.3333H302.68ZM316.013 53.6667H336.013V47H316.013V53.6667ZM356.039 73.6667H382.706V67H362.706V60.3333H356.039V40.3333H362.706V33.6667H396.039V47H369.372V53.6667H389.372V60.3333H396.039V80.3333H389.372V87H356.039V73.6667ZM402.68 87V13.6667H416.013V40.3333H422.68V33.6667H442.68V40.3333H449.346V87H436.013V47H422.68V53.6667H416.013V87H402.68Z" fill="#FCFF5D"/>
</svg>
