<svg width="732" height="115" viewBox="0 0 732 115" fill="none" xmlns="http://www.w3.org/2000/svg">
<rect x="36.501" y="41.7142" width="10.4286" height="10.4286" fill="#1E1E1E"/>
<rect x="99.0723" y="41.7142" width="10.4286" height="10.4286" fill="#1E1E1E"/>
<rect x="57.3584" y="41.7142" width="10.4286" height="10.4286" fill="#1E1E1E"/>
<rect x="78.2158" y="41.7142" width="10.4286" height="10.4286" fill="#1E1E1E"/>
<rect x="62.5713" width="10.4286" height="10.4286" fill="#1E1E1E"/>
<rect x="52.1426" width="10.4286" height="10.4286" fill="#1E1E1E"/>
<rect x="41.7148" width="10.4286" height="10.4286" fill="#1E1E1E"/>
<rect x="31.2852" width="10.4286" height="10.4286" fill="#1E1E1E"/>
<rect x="20.8574" width="10.4286" height="10.4286" fill="#1E1E1E"/>
<rect x="10.4287" y="10.4286" width="10.4286" height="10.4286" fill="#1E1E1E"/>
<rect y="20.8571" width="10.4286" height="10.4286" fill="#1E1E1E"/>
<rect y="31.2857" width="10.4286" height="10.4286" fill="#1E1E1E"/>
<rect y="41.7142" width="10.4286" height="10.4286" fill="#1E1E1E"/>
<rect y="52.1428" width="10.4286" height="10.4286" fill="#1E1E1E"/>
<rect y="62.5715" width="10.4286" height="10.4286" fill="#1E1E1E"/>
<rect x="10.4287" y="72.9999" width="10.4286" height="10.4286" fill="#1E1E1E"/>
<rect x="20.8574" y="83.4286" width="10.4286" height="10.4286" fill="#1E1E1E"/>
<rect x="41.7148" y="83.4286" width="10.4286" height="10.4286" fill="#1E1E1E"/>
<rect x="31.2852" y="83.4286" width="10.4286" height="10.4286" fill="#1E1E1E"/>
<rect x="52.1426" y="93.8572" width="10.4286" height="10.4286" fill="#1E1E1E"/>
<rect x="62.5713" y="83.4286" width="10.4286" height="10.4286" fill="#1E1E1E"/>
<rect x="83.4287" y="83.4286" width="10.4286" height="10.4286" fill="#1E1E1E"/>
<rect x="93.8564" y="83.4286" width="10.4286" height="10.4286" fill="#1E1E1E"/>
<rect x="104.286" y="83.4286" width="10.4286" height="10.4286" fill="#1E1E1E"/>
<rect x="114.714" y="83.4286" width="10.4286" height="10.4286" fill="#1E1E1E"/>
<rect x="114.714" width="10.4286" height="10.4286" fill="#1E1E1E"/>
<rect x="125.144" y="72.9999" width="10.4286" height="10.4286" fill="#1E1E1E"/>
<rect x="104.286" width="10.4286" height="10.4286" fill="#1E1E1E"/>
<rect x="62.5713" y="104.286" width="10.4286" height="10.4286" fill="#1E1E1E"/>
<rect x="135.571" y="62.5715" width="10.4286" height="10.4286" fill="#1E1E1E"/>
<rect x="135.571" y="52.1428" width="10.4286" height="10.4286" fill="#1E1E1E"/>
<rect x="135.571" y="41.7142" width="10.4286" height="10.4286" fill="#1E1E1E"/>
<rect x="135.571" y="31.2857" width="10.4286" height="10.4286" fill="#1E1E1E"/>
<rect x="135.571" y="20.8571" width="10.4286" height="10.4286" fill="#1E1E1E"/>
<rect x="125.144" y="10.4286" width="10.4286" height="10.4286" fill="#1E1E1E"/>
<rect x="62.5713" y="93.8572" width="10.4286" height="10.4286" fill="#1E1E1E"/>
<rect x="93.8564" width="10.4286" height="10.4286" fill="#1E1E1E"/>
<rect x="83.4287" width="10.4286" height="10.4286" fill="#1E1E1E"/>
<rect x="73" width="10.4286" height="10.4286" fill="#1E1E1E"/>
<rect x="73" y="83.4286" width="10.4286" height="10.4286" fill="#1E1E1E"/>
<path d="M162 26.6667V24H170V21.3333H167.333V18.6667H164.667V16H162V13.3333H170V10.6667H175.333V13.3333H183.333V10.6667H188.667V16H191.333V21.3333H188.667V32H175.333V29.3333H164.667V26.6667H162ZM178 21.3333H175.333V24H183.333V16H180.667V18.6667H178V21.3333ZM164.667 40V32H175.333V34.6667H188.667V40H164.667ZM170 16V18.6667H175.333V16H170ZM194 26.6667V21.3333H196.667V18.6667H199.333V10.6667H204.667V18.6667H207.333V21.3333H210V26.6667H204.667V24H199.333V26.6667H194ZM218 37.3333V40H199.333V37.3333H196.667V32H199.333V29.3333H218V32H220.667V37.3333H218ZM210 21.3333V16H215.333V10.6667H220.667V26.6667H215.333V21.3333H210ZM215.333 34.6667V32H202V34.6667H215.333ZM226 37.3333V32H234V29.3333H231.333V26.6667H228.667V21.3333H231.333V18.6667H226V13.3333H234V10.6667H239.333V13.3333H247.333V10.6667H252.667V21.3333H255.333V26.6667H252.667V40H247.333V37.3333H226ZM242 26.6667V29.3333H239.333V32H247.333V18.6667H242V21.3333H244.667V26.6667H242ZM234 21.3333V24H239.333V21.3333H234ZM258 26.6667V24H266V21.3333H260.667V10.6667H276.667V13.3333H266V16H276.667V21.3333H271.333V24H279.333V10.6667H284.667V29.3333H279.333V26.6667H258ZM260.667 40V29.3333H266V34.6667H284.667V40H260.667ZM303.344 26.6667V10.6667H308.677V13.3333H314.01V10.6667H319.344V26.6667H303.344ZM327.344 37.3333V40H308.677V37.3333H306.01V32H308.677V29.3333H327.344V32H330.01V37.3333H327.344ZM308.677 21.3333H314.01V16H308.677V21.3333ZM332.677 21.3333H330.01V26.6667H324.677V10.6667H330.01V16H332.677V21.3333ZM324.677 34.6667V32H311.344V34.6667H324.677ZM335.344 34.6667V13.3333H338.01V10.6667H348.677V13.3333H351.344V34.6667H348.677V37.3333H338.01V34.6667H335.344ZM356.677 40V10.6667H362.01V40H356.677ZM340.677 32H346.01V16H340.677V32ZM380.688 24V13.3333H383.354V10.6667H394.021V13.3333H396.688V16H402.021V10.6667H407.354V26.6667H402.021V21.3333H396.688V24H394.021V26.6667H383.354V24H380.688ZM404.688 34.6667H407.354V40H402.021V37.3333H399.354V40H383.354V29.3333H388.688V32H391.354V29.3333H396.688V34.6667H399.354V29.3333H404.688V34.6667ZM386.021 21.3333H391.354V16H386.021V21.3333ZM391.354 34.6667H388.688V37.3333H391.354V34.6667ZM412.688 26.6667V24H442.021V26.6667H439.354V40H415.354V26.6667H412.688ZM423.354 21.3333H415.354V16H420.688V13.3333H423.354V10.6667H431.354V13.3333H434.021V16H439.354V21.3333H431.354V18.6667H428.688V16H426.021V18.6667H423.354V21.3333ZM434.021 34.6667V32H420.688V34.6667H434.021ZM434.021 29.3333V26.6667H420.688V29.3333H434.021ZM444.688 37.3333V10.6667H450.021V32H463.354V37.3333H444.688ZM466.021 40V10.6667H471.354V40H466.021ZM476.688 37.3333V10.6667H492.688V16H482.021V32H495.354V37.3333H476.688ZM498.021 40V10.6667H503.354V21.3333H506.021V26.6667H503.354V40H498.021ZM508.688 34.6667H514.021V40H508.688V34.6667ZM508.688 32V10.6667H514.021V32H508.688ZM162 69.6667V53.6667H167.333V56.3333H172.667V53.6667H178V69.6667H162ZM186 80.3333V83H167.333V80.3333H164.667V75H167.333V72.3333H186V75H188.667V80.3333H186ZM167.333 64.3333H172.667V59H167.333V64.3333ZM191.333 64.3333H188.667V69.6667H183.333V53.6667H188.667V59H191.333V64.3333ZM183.333 77.6667V75H170V77.6667H183.333ZM218 53.6667V56.3333H220.667V61.6667H218V64.3333H223.333V67H194V64.3333H199.333V61.6667H196.667V56.3333H199.333V53.6667H218ZM215.333 59V56.3333H202V59H215.333ZM196.667 83V75H207.333V77.6667H220.667V83H196.667ZM196.667 72.3333V69.6667H220.667V75H207.333V72.3333H196.667ZM239.344 69.6667V64.3333H242.01V61.6667H244.677V53.6667H250.01V61.6667H252.677V64.3333H255.344V53.6667H258.01V59H260.677V53.6667H266.01V69.6667H260.677V64.3333H258.01V69.6667H250.01V67H244.677V69.6667H239.344ZM263.344 80.3333V83H244.677V80.3333H242.01V75H244.677V72.3333H263.344V75H266.01V80.3333H263.344ZM260.677 77.6667V75H247.344V77.6667H260.677ZM271.344 69.6667V64.3333H274.01V61.6667H276.677V53.6667H282.01V61.6667H284.677V64.3333H287.344V69.6667H282.01V67H276.677V69.6667H271.344ZM295.344 80.3333V83H276.677V80.3333H274.01V75H276.677V72.3333H295.344V75H298.01V80.3333H295.344ZM287.344 64.3333V59H292.677V53.6667H298.01V69.6667H292.677V64.3333H287.344ZM292.677 77.6667V75H279.344V77.6667H292.677ZM303.344 56.3333H311.344V53.6667H316.677V56.3333H324.677V53.6667H330.01V64.3333H332.677V69.6667H330.01V83H324.677V61.6667H303.344V56.3333ZM308.677 77.6667H306.01V67H308.677V64.3333H319.344V67H322.01V77.6667H319.344V80.3333H308.677V77.6667ZM311.344 69.6667V75H316.677V69.6667H311.344ZM335.344 80.3333V75H340.677V72.3333H343.344V67H346.01V59H335.344V53.6667H351.344V64.3333H356.677V53.6667H362.01V83H356.677V69.6667H348.677V75H346.01V77.6667H343.344V80.3333H335.344ZM367.344 80.3333V53.6667H372.677V75H386.01V80.3333H367.344ZM388.677 83V53.6667H394.01V64.3333H396.677V69.6667H394.01V83H388.677ZM412.688 80.3333V72.3333H415.354V64.3333H418.021V53.6667H423.354V64.3333H426.021V72.3333H428.688V53.6667H431.354V64.3333H434.021V53.6667H439.354V83H434.021V69.6667H431.354V83H428.688V80.3333H423.354V75H418.021V80.3333H412.688ZM444.688 80.3333V75H458.021V72.3333H447.354V61.6667H466.021V59H447.354V53.6667H471.354V64.3333H452.688V67H471.354V72.3333H463.354V75H474.021V80.3333H444.688ZM476.688 80.3333V75H487.354V64.3333H492.688V75H506.021V80.3333H476.688ZM479.354 53.6667H503.354V72.3333H498.021V59H479.354V53.6667ZM508.688 69.6667V64.3333H514.021V61.6667H508.688V56.3333H516.688V53.6667H522.021V56.3333H527.354V61.6667H522.021V64.3333H527.354V69.6667H522.021V67H519.354V64.3333H516.688V67H514.021V69.6667H508.688ZM530.021 77.6667V75H516.688V77.6667H530.021ZM530.021 69.6667V53.6667H535.354V69.6667H530.021ZM511.354 83V72.3333H535.354V83H511.354ZM564.688 53.6667V56.3333H567.354V61.6667H564.688V64.3333H570.021V67H540.688V64.3333H546.021V61.6667H543.354V56.3333H546.021V53.6667H564.688ZM562.021 59V56.3333H548.688V59H562.021ZM543.354 83V75H554.021V77.6667H567.354V83H543.354ZM543.354 72.3333V69.6667H567.354V75H554.021V72.3333H543.354ZM586.031 77.6667V67H588.698V64.3333H596.698V67H599.365V77.6667H596.698V80.3333H588.698V77.6667H586.031ZM586.031 56.3333H591.365V53.6667H596.698V56.3333H599.365V61.6667H586.031V56.3333ZM591.365 75H594.031V69.6667H591.365V75ZM602.031 83V53.6667H604.698V64.3333H607.365V53.6667H612.698V83H607.365V69.6667H604.698V83H602.031ZM618.031 80.3333V75H631.365V69.6667H620.698V53.6667H626.031V56.3333H639.365V53.6667H644.698V69.6667H636.698V75H647.365V80.3333H618.031ZM639.365 64.3333V61.6667H626.031V64.3333H639.365ZM650.031 80.3333V72.3333H652.698V64.3333H655.365V53.6667H660.698V61.6667H666.031V53.6667H668.698V83H666.031V80.3333H660.698V75H655.365V80.3333H650.031ZM666.031 72.3333V67H663.365V72.3333H666.031ZM671.365 83V53.6667H676.698V83H671.365ZM682.031 80.3333V75H687.365V67H684.698V56.3333H687.365V53.6667H706.031V56.3333H708.698V67H706.031V75H711.365V80.3333H682.031ZM703.365 64.3333V59H690.031V64.3333H703.365ZM692.698 69.6667V75H700.698V69.6667H692.698ZM714.031 77.6667H719.365V83H714.031V77.6667Z" fill="black"/>
</svg>
