<svg width="472" height="107" viewBox="0 0 472 107" fill="none" xmlns="http://www.w3.org/2000/svg">
<path d="M95.8337 58.3334V62.5H91.667V70.8334H87.5003V79.1667H83.3337V83.3334H79.167V87.5H70.8337V91.6667H62.5003V95.8334H37.5003V91.6667H29.167V87.5H20.8337V83.3334H12.5003V87.5H8.33366V91.6667H4.16699V58.3334H37.5003V62.5H33.3337V66.6667H29.167V75H33.3337V79.1667H41.667V83.3334H58.3337V79.1667H66.667V75H70.8337V70.8334H75.0003V62.5H79.167V58.3334H95.8337Z" fill="#6FEB44"/>
<path d="M95.8337 8.33329V41.6666H62.5003V37.5H66.667V33.3333H70.8337V25H66.667V20.8333H58.3337V16.6666H41.667V20.8333H33.3337V25H29.167V29.1666H25.0003V37.5H20.8337V41.6666H4.16699V37.5H8.33366V29.1666H12.5003V20.8333H16.667V16.6666H20.8337V12.5H29.167V8.33329H37.5003V4.16663H62.5003V8.33329H70.8337V12.5H79.167V16.6666H87.5003V12.5H91.667V8.33329H95.8337Z" fill="#6FEB44"/>
<path d="M115.961 87V13.6667H155.961V20.3333H162.628V53.6667H155.961V67H162.628V87H149.294V73.6667H142.628V60.3333H129.294V87H115.961ZM129.294 47H149.294V27H129.294V47ZM169.32 80.3333V40.3333H175.987V33.6667H209.32V40.3333H215.987V67H182.654V73.6667H215.987V87H175.987V80.3333H169.32ZM182.654 53.6667H202.654V47H182.654V53.6667ZM222.68 47V33.6667H229.346V20.3333H236.013V13.6667H256.013V27H242.68V33.6667H256.013V47H242.68V87H229.346V47H222.68ZM262.68 87V33.6667H276.013V40.3333H282.68V33.6667H296.013V47H282.68V53.6667H276.013V87H262.68ZM302.68 80.3333V40.3333H309.346V33.6667H342.68V40.3333H349.346V67H316.013V73.6667H349.346V87H309.346V80.3333H302.68ZM316.013 53.6667H336.013V47H316.013V53.6667ZM356.039 73.6667H382.706V67H362.706V60.3333H356.039V40.3333H362.706V33.6667H396.039V47H369.372V53.6667H389.372V60.3333H396.039V80.3333H389.372V87H356.039V73.6667ZM402.68 87V13.6667H416.013V40.3333H422.68V33.6667H442.68V40.3333H449.346V87H436.013V47H422.68V53.6667H416.013V87H402.68Z" fill="black"/>
</svg>
