<svg width="472" height="107" viewBox="0 0 472 107" fill="none" xmlns="http://www.w3.org/2000/svg">
<path d="M95.8332 58.3333V62.4999H91.6665V70.8333H87.4998V79.1666H83.3332V83.3333H79.1665V87.4999H70.8332V91.6666H62.4998V95.8333H37.4998V91.6666H29.1665V87.4999H20.8332V83.3333H12.4998V87.4999H8.33317V91.6666H4.1665V58.3333H37.4998V62.4999H33.3332V66.6666H29.1665V74.9999H33.3332V79.1666H41.6665V83.3333H58.3332V79.1666H66.6665V74.9999H70.8332V70.8333H74.9998V62.4999H79.1665V58.3333H95.8332Z" fill="#6FEB44"/>
<path d="M95.8332 8.33341V41.6667H62.4998V37.5001H66.6665V33.3334H70.8332V25.0001H66.6665V20.8334H58.3332V16.6667H41.6665V20.8334H33.3332V25.0001H29.1665V29.1667H24.9998V37.5001H20.8332V41.6667H4.1665V37.5001H8.33317V29.1667H12.4998V20.8334H16.6665V16.6667H20.8332V12.5001H29.1665V8.33341H37.4998V4.16675H62.4998V8.33341H70.8332V12.5001H79.1665V16.6667H87.4998V12.5001H91.6665V8.33341H95.8332Z" fill="#6FEB44"/>
<path d="M126 80.3333V60.3333H132.667V40.3333H139.333V13.6667H152.667V40.3333H159.333V60.3333H166V13.6667H172.667V40.3333H179.333V13.6667H192.667V87H179.333V53.6667H172.667V87H166V80.3333H152.667V67H139.333V80.3333H126ZM206 80.3333V67H239.333V60.3333H212.667V33.6667H259.333V27H212.667V13.6667H272.667V40.3333H226V47H272.667V60.3333H252.667V67H279.333V80.3333H206ZM286 80.3333V67H312.667V40.3333H326V67H359.333V80.3333H286ZM292.667 13.6667H352.667V60.3333H339.333V27H292.667V13.6667ZM366 53.6667V40.3333H379.333V33.6667H366V20.3333H386V13.6667H399.333V20.3333H412.667V33.6667H399.333V40.3333H412.667V53.6667H399.333V47H392.667V40.3333H386V47H379.333V53.6667H366ZM419.333 73.6667V67H386V73.6667H419.333ZM419.333 53.6667V13.6667H432.667V53.6667H419.333ZM372.667 87V60.3333H432.667V87H372.667Z" fill="black"/>
</svg>
