<svg width="160" height="144" viewBox="0 0 160 144" fill="none" xmlns="http://www.w3.org/2000/svg">
<rect y="112" width="16" height="16" fill="#1E1E1E"/>
<rect y="96" width="16" height="16" fill="#1E1E1E"/>
<rect y="80" width="16" height="16" fill="#1E1E1E"/>
<rect y="64" width="16" height="16" fill="#1E1E1E"/>
<rect y="48" width="16" height="16" fill="#1E1E1E"/>
<rect x="16" y="48" width="16" height="16" fill="#1E1E1E"/>
<rect x="16" y="32" width="16" height="16" fill="#1E1E1E"/>
<rect x="16" y="16" width="16" height="16" fill="#1E1E1E"/>
<rect x="80" y="32" width="16" height="16" fill="#1E1E1E"/>
<rect x="32" width="16" height="16" fill="#1E1E1E"/>
<rect x="48" width="16" height="16" fill="#1E1E1E"/>
<rect x="64" width="16" height="16" fill="#1E1E1E"/>
<rect x="80" y="16" width="16" height="16" fill="#1E1E1E"/>
<rect x="32" y="48" width="16" height="16" fill="#1E1E1E"/>
<rect x="48" y="48" width="16" height="16" fill="#1E1E1E"/>
<rect x="48" y="80" width="16" height="16" fill="#1E1E1E"/>
<rect x="48" y="96" width="16" height="16" fill="#1E1E1E"/>
<rect x="64" y="48" width="16" height="16" fill="#1E1E1E"/>
<rect x="80" y="48" width="16" height="16" fill="#1E1E1E"/>
<rect x="96" y="48" width="16" height="16" fill="#1E1E1E"/>
<rect x="96" y="64" width="16" height="16" fill="#1E1E1E"/>
<rect x="96" y="80" width="16" height="16" fill="#1E1E1E"/>
<rect x="96" y="96" width="16" height="16" fill="#1E1E1E"/>
<rect x="96" y="112" width="16" height="16" fill="#1E1E1E"/>
<rect x="64" y="128" width="16" height="16" fill="#1E1E1E"/>
<rect x="48" y="128" width="16" height="16" fill="#1E1E1E"/>
<rect x="32" y="128" width="16" height="16" fill="#1E1E1E"/>
<rect x="80" y="128" width="16" height="16" fill="#1E1E1E"/>
<rect x="16" y="128" width="16" height="16" fill="#1E1E1E"/>
<rect x="96" y="128" width="16" height="16" fill="#1E1E1E"/>
<rect y="128" width="16" height="16" fill="#1E1E1E"/>
</svg>
