<svg width="51" height="44" viewBox="0 0 51 44" fill="none" xmlns="http://www.w3.org/2000/svg">
<path d="M47.1426 40.8571H3.14258V44H47.1426V40.8571Z" fill="#F7FEFF"/>
<path d="M47.1426 6.28571H40.8569V9.42857H43.9997V37.7143H6.28544V9.42857H9.42829V6.28571H3.14258V40.8571H47.1426V6.28571Z" fill="#231E2B"/>
<path d="M44.0004 34.5714H6.28613V37.7143H44.0004V34.5714Z" fill="#AB712B"/>
<path d="M3.14286 6.28571H0V40.8571H3.14286V6.28571Z" fill="#F7FEFF"/>
<path d="M44.0004 31.4286H6.28613V34.5714H44.0004V31.4286Z" fill="#C48538"/>
<path d="M44.0004 28.2857H6.28613V31.4286H44.0004V28.2857Z" fill="#664926"/>
<path d="M34.5716 18.8571H31.4287V22H34.5716V18.8571Z" fill="#C48538"/>
<path d="M31.429 18.8571H28.2861V22H31.429V18.8571Z" fill="#664926"/>
<path d="M22.0003 18.8571H18.8574V22H22.0003V18.8571Z" fill="#664926"/>
<path d="M18.8567 18.8571H15.7139V22H18.8567V18.8571Z" fill="#C48538"/>
<path d="M37.7141 15.7143H34.5713V18.8571H37.7141V15.7143Z" fill="#C48538"/>
<path d="M31.4287 18.8571H34.5716V15.7143H37.7144V12.5714H31.4287V18.8571Z" fill="#231E2B"/>
<path d="M31.429 12.5714H28.2861V18.8571H31.429V12.5714Z" fill="#C48538"/>
<path d="M22.0003 12.5714H18.8574V18.8571H22.0003V12.5714Z" fill="#C48538"/>
<path d="M15.7141 15.7143H12.5713V18.8571H15.7141V15.7143Z" fill="#C48538"/>
<path d="M40.8576 15.7143H37.7147V18.8571H34.5718V22H28.2861V9.42857H25.1433V12.5714H22.0004V22H15.7147V18.8571H12.5718V15.7143H9.42899V12.5714H6.28613V28.2857H44.0004V12.5714H40.8576V15.7143Z" fill="#AB712B"/>
<path d="M40.8567 12.5714H37.7139V15.7143H40.8567V12.5714Z" fill="#C48538"/>
<path d="M15.7141 15.7143V18.8571H18.857V12.5714H12.5713V15.7143H15.7141Z" fill="#231E2B"/>
<path d="M12.5716 12.5714H9.42871V15.7143H12.5716V12.5714Z" fill="#C48538"/>
<path d="M44.0003 9.42857H40.8574V12.5714H44.0003V9.42857Z" fill="#C48538"/>
<path d="M40.8567 9.42857H37.7139V12.5714H40.8567V9.42857Z" fill="#231E2B"/>
<path d="M31.4287 12.5714H37.7144V9.42857H34.5716V6.28571H31.4287V12.5714Z" fill="#F7FEFF"/>
<path d="M25.1429 9.42857H28.2857V6.28571H22V12.5714H25.1429V9.42857Z" fill="#C48538"/>
<path d="M22.0003 6.28571H18.8574V12.5714H22.0003V6.28571Z" fill="#231E2B"/>
<path d="M18.857 12.5714V6.28571H15.7141V9.42857H12.5713V12.5714H18.857Z" fill="#F7FEFF"/>
<path d="M12.5716 9.42857H9.42871V12.5714H12.5716V9.42857Z" fill="#231E2B"/>
<path d="M9.42899 9.42857H6.28613V12.5714H9.42899V9.42857Z" fill="#C48538"/>
<path d="M50.2854 6.28571H47.1426V40.8571H50.2854V6.28571Z" fill="#F7FEFF"/>
<path d="M40.8567 6.28571H37.7139V9.42857H40.8567V6.28571Z" fill="#F7FEFF"/>
<path d="M31.429 6.28571H28.2861V12.5714H31.429V6.28571Z" fill="#231E2B"/>
<path d="M12.5716 6.28571H9.42871V9.42857H12.5716V6.28571Z" fill="#F7FEFF"/>
<path d="M47.1431 3.14286H40.8574V6.28572H47.1431V3.14286Z" fill="#F7FEFF"/>
<path d="M31.429 3.14286H28.2861V6.28572H31.429V3.14286Z" fill="#F7FEFF"/>
<path d="M28.2857 3.14286H22V6.28572H28.2857V3.14286Z" fill="#231E2B"/>
<path d="M22.0003 3.14286H18.8574V6.28572H22.0003V3.14286Z" fill="#F7FEFF"/>
<path d="M9.42829 3.14286H3.14258V6.28572H9.42829V3.14286Z" fill="#F7FEFF"/>
<path d="M28.2857 0H22V3.14286H28.2857V0Z" fill="#F7FEFF"/>
</svg>
