<svg width="51" height="44" viewBox="0 0 51 44" fill="none" xmlns="http://www.w3.org/2000/svg">
<path d="M47.1431 40.8571H3.14307V44H47.1431V40.8571Z" fill="#F7FEFF"/>
<path d="M47.1431 6.28571H40.8574V9.42857H44.0002V37.7143H6.28592V9.42857H9.42878V6.28571H3.14307V40.8571H47.1431V6.28571Z" fill="#231E2B"/>
<path d="M43.9999 34.5714H6.28564V37.7143H43.9999V34.5714Z" fill="#E2B436"/>
<path d="M3.14286 6.28571H0V40.8571H3.14286V6.28571Z" fill="#F7FEFF"/>
<path d="M43.9999 31.4286H6.28564V34.5714H43.9999V31.4286Z" fill="#F5F38E"/>
<path d="M43.9999 28.2857H6.28564V31.4286H43.9999V28.2857Z" fill="#CF8934"/>
<path d="M34.5716 18.8571H31.4287V22H34.5716V18.8571Z" fill="#F5F38E"/>
<path d="M31.4285 18.8571H28.2856V22H31.4285V18.8571Z" fill="#CF8934"/>
<path d="M21.9998 18.8571H18.8569V22H21.9998V18.8571Z" fill="#CF8934"/>
<path d="M18.8572 18.8571H15.7144V22H18.8572V18.8571Z" fill="#F5F38E"/>
<path d="M37.7141 15.7143H34.5713V18.8571H37.7141V15.7143Z" fill="#F5F38E"/>
<path d="M31.4287 18.8571H34.5716V15.7143H37.7144V12.5714H31.4287V18.8571Z" fill="#231E2B"/>
<path d="M31.4285 12.5714H28.2856V18.8571H31.4285V12.5714Z" fill="#F5F38E"/>
<path d="M21.9998 12.5714H18.8569V18.8571H21.9998V12.5714Z" fill="#F5F38E"/>
<path d="M15.7141 15.7143H12.5713V18.8571H15.7141V15.7143Z" fill="#F5F38E"/>
<path d="M40.8571 15.7143H37.7142V18.8571H34.5714V22H28.2856V9.42857H25.1428V12.5714H21.9999V22H15.7142V18.8571H12.5714V15.7143H9.4285V12.5714H6.28564V28.2857H43.9999V12.5714H40.8571V15.7143Z" fill="#E2B436"/>
<path d="M40.8572 12.5714H37.7144V15.7143H40.8572V12.5714Z" fill="#F5F38E"/>
<path d="M15.7141 15.7143V18.8571H18.857V12.5714H12.5713V15.7143H15.7141Z" fill="#231E2B"/>
<path d="M12.5716 12.5714H9.42871V15.7143H12.5716V12.5714Z" fill="#F5F38E"/>
<path d="M43.9998 9.42857H40.8569V12.5714H43.9998V9.42857Z" fill="#F5F38E"/>
<path d="M40.8572 9.42857H37.7144V12.5714H40.8572V9.42857Z" fill="#231E2B"/>
<path d="M31.4287 12.5714H37.7144V9.42857H34.5716V6.28571H31.4287V12.5714Z" fill="#F7FEFF"/>
<path d="M25.1429 9.42857H28.2857V6.28571H22V12.5714H25.1429V9.42857Z" fill="#F5F38E"/>
<path d="M21.9998 6.28571H18.8569V12.5714H21.9998V6.28571Z" fill="#231E2B"/>
<path d="M18.857 12.5714V6.28571H15.7141V9.42857H12.5713V12.5714H18.857Z" fill="#F7FEFF"/>
<path d="M12.5716 9.42857H9.42871V12.5714H12.5716V9.42857Z" fill="#231E2B"/>
<path d="M9.4285 9.42857H6.28564V12.5714H9.4285V9.42857Z" fill="#F5F38E"/>
<path d="M50.2859 6.28571H47.1431V40.8571H50.2859V6.28571Z" fill="#F7FEFF"/>
<path d="M40.8572 6.28571H37.7144V9.42857H40.8572V6.28571Z" fill="#F7FEFF"/>
<path d="M31.4285 6.28571H28.2856V12.5714H31.4285V6.28571Z" fill="#231E2B"/>
<path d="M12.5716 6.28571H9.42871V9.42857H12.5716V6.28571Z" fill="#F7FEFF"/>
<path d="M47.1426 3.14286H40.8569V6.28571H47.1426V3.14286Z" fill="#F7FEFF"/>
<path d="M31.4285 3.14286H28.2856V6.28571H31.4285V3.14286Z" fill="#F7FEFF"/>
<path d="M28.2857 3.14286H22V6.28571H28.2857V3.14286Z" fill="#231E2B"/>
<path d="M21.9998 3.14286H18.8569V6.28571H21.9998V3.14286Z" fill="#F7FEFF"/>
<path d="M9.42878 3.14286H3.14307V6.28571H9.42878V3.14286Z" fill="#F7FEFF"/>
<path d="M28.2857 0H22V3.14286H28.2857V0Z" fill="#F7FEFF"/>
</svg>
