<svg width="698" height="154" viewBox="0 0 698 154" fill="none" xmlns="http://www.w3.org/2000/svg">
<path d="M120 112.563H108.562V118.3H120V112.563Z" fill="black"/>
<path d="M108.562 118.3H102.862V124H108.562V118.3Z" fill="black"/>
<path d="M102.863 78.2875H97.125V83.9875H102.863V89.725H108.563V61.15H102.863V78.2875Z" fill="black"/>
<path d="M102.862 112.563H91.4248V118.3H102.862V112.563Z" fill="black"/>
<path d="M102.863 55.45H97.125V61.15H102.863V55.45Z" fill="black"/>
<path d="M91.4248 106.863H79.9873V112.563H91.4248V106.863Z" fill="black"/>
<path d="M85.7246 83.9875H91.4246V78.2875H97.1246V72.5875H91.4246V55.45H97.1246V49.7125H91.4246V32.575H85.7246V83.9875Z" fill="black"/>
<path d="M79.9871 118.3H74.2871V124H79.9871V118.3Z" fill="black"/>
<path d="M79.9871 72.5875H74.2871V78.2875H79.9871V72.5875Z" fill="black"/>
<path d="M79.9871 61.15H74.2871V66.85H79.9871V61.15Z" fill="black"/>
<path d="M74.2873 106.863H68.5498V118.3H74.2873V106.863Z" fill="black"/>
<path d="M74.2871 95.425H51.4121V101.163H74.2871V95.425Z" fill="black"/>
<path d="M74.2873 9.7H68.5498V15.4375H74.2873V9.7Z" fill="black"/>
<path d="M68.5504 4H57.1504V9.7H68.5504V4Z" fill="black"/>
<path d="M74.2871 38.275H68.5496V32.575H57.1496V38.275H62.8496V44.0125H57.1496V38.275H51.4121V49.7125H57.1496V55.45H68.5496V49.7125H74.2871V38.275Z" fill="black"/>
<path d="M57.1496 106.863H51.4121V118.3H57.1496V106.863Z" fill="black"/>
<path d="M39.9746 89.725H45.7121V95.425H51.4121V89.725H74.2871V95.425H79.9871V89.725H85.7246V83.9875H39.9746V89.725Z" fill="black"/>
<path d="M57.1496 9.7H51.4121V15.4375H57.1496V9.7Z" fill="black"/>
<path d="M51.4129 118.3H45.7129V124H51.4129V118.3Z" fill="black"/>
<path d="M45.7129 106.863H34.2754V112.563H45.7129V106.863Z" fill="black"/>
<path d="M51.4121 21.1375V15.4375H45.7121V21.1375H39.9746V32.575H45.7121V26.875H79.9871V32.575H85.7246V21.1375H79.9871V15.4375H74.2871V21.1375H51.4121Z" fill="black"/>
<path d="M39.9752 32.575H34.2752V49.7125H28.5752V55.45H34.2752V72.5875H28.5752V78.2875H34.2752V83.9875H39.9752V32.575Z" fill="black"/>
<path d="M34.2754 112.563H22.8379V118.3H34.2754V112.563Z" fill="black"/>
<path d="M28.5754 55.45H22.8379V61.15H28.5754V55.45Z" fill="black"/>
<path d="M22.8377 118.3H17.1377V124H22.8377V118.3Z" fill="black"/>
<path d="M22.8377 61.15H17.1377V89.725H22.8377V83.9875H28.5752V78.2875H22.8377V61.15Z" fill="black"/>
<path d="M17.1377 112.563H5.7002V118.3H17.1377V112.563Z" fill="black"/>
<path d="M5.7 118.3H0V124H5.7V118.3Z" fill="black"/>
<g filter="url(#filter0_d_420_3078)">
<path d="M149.25 118V0.666664H213.25V11.3333H223.917V64.6667H213.25V86H223.917V118H202.583V96.6667H191.917V75.3333H170.583V118H149.25ZM170.583 54H202.583V22H170.583V54Z" fill="#FCFF5D"/>
<path d="M234.625 107.333V75.3333H245.292V64.6667H277.292V54H234.625V32.6667H287.958V43.3333H298.625V118H245.292V107.333H234.625ZM255.958 96.6667H277.292V86H255.958V96.6667ZM309.25 118V32.6667H330.583V43.3333H341.25V32.6667H373.25V43.3333H383.917V118H362.583V54H341.25V64.6667H330.583V118H309.25ZM394.625 118V0.666664H415.958V64.6667H426.625V54H437.292V43.3333H447.958V32.6667H469.292V54H458.625V64.6667H447.958V86H458.625V96.6667H469.292V118H447.958V107.333H437.292V96.6667H426.625V86H415.958V118H394.625ZM480 118V32.6667H501.333V118H480ZM480 22V0.666664H501.333V22H480ZM512 118V32.6667H533.333V43.3333H544V32.6667H576V43.3333H586.667V118H565.333V54H544V64.6667H533.333V118H512ZM597.375 96.6667V43.3333H608.042V32.6667H640.042V43.3333H650.708V32.6667H672.042V128.667H661.375V139.333H608.042V118H650.708V96.6667H640.042V107.333H608.042V96.6667H597.375ZM618.708 86H640.042V75.3333H650.708V64.6667H640.042V54H618.708V86Z" fill="black"/>
</g>
<defs>
<filter id="filter0_d_420_3078" x="149.25" y="0.666656" width="536.792" height="152.667" filterUnits="userSpaceOnUse" color-interpolation-filters="sRGB">
<feFlood flood-opacity="0" result="BackgroundImageFix"/>
<feColorMatrix in="SourceAlpha" type="matrix" values="0 0 0 0 0 0 0 0 0 0 0 0 0 0 0 0 0 0 127 0" result="hardAlpha"/>
<feOffset dx="10" dy="10"/>
<feGaussianBlur stdDeviation="2"/>
<feComposite in2="hardAlpha" operator="out"/>
<feColorMatrix type="matrix" values="0 0 0 0 0 0 0 0 0 0 0 0 0 0 0 0 0 0 0.25 0"/>
<feBlend mode="normal" in2="BackgroundImageFix" result="effect1_dropShadow_420_3078"/>
<feBlend mode="normal" in="SourceGraphic" in2="effect1_dropShadow_420_3078" result="shape"/>
</filter>
</defs>
</svg>
