<svg width="296" height="296" viewBox="0 0 296 296" fill="none" xmlns="http://www.w3.org/2000/svg">
<path d="M180.889 123.333H193.222V111H180.889V123.333Z" fill="black"/>
<path d="M193.222 135.667H205.556V123.333H193.222V135.667Z" fill="black"/>
<path d="M217.889 160.333H230.222V148H217.889V160.333Z" fill="black"/>
<path d="M230.222 172.667H242.556V160.333H230.222V172.667Z" fill="black"/>
<path d="M180.889 172.667H193.222V160.333H180.889V172.667Z" fill="black"/>
<path d="M193.222 160.333H205.556V148H193.222V160.333Z" fill="black"/>
<path d="M205.556 148H217.889V135.667H205.556V148Z" fill="black"/>
<path d="M217.889 135.667H230.222V123.333H217.889V135.667Z" fill="black"/>
<path d="M230.222 123.333H242.556V111H230.222V123.333Z" fill="black"/>
<path d="M119.222 98.6667V86.3333H94.5555V98.6667H119.222Z" fill="black"/>
<path d="M94.5555 111V98.6667H69.8889V111H94.5555Z" fill="black"/>
<path d="M69.8889 111H57.5555V185H69.8889V111Z" fill="black"/>
<path d="M69.8889 185V197.333H94.5555V185H69.8889Z" fill="black"/>
<path d="M94.5555 197.333V209.667H119.222V197.333H94.5555Z" fill="black"/>
<path d="M119.222 209.667V222H143.889V209.667H119.222Z" fill="black"/>
<path d="M143.889 209.667H156.222V86.3333H143.889V209.667Z" fill="black"/>
<path d="M143.889 86.3333V74H119.222V86.3333H143.889Z" fill="black"/>
</svg>
