<svg width="275" height="275" viewBox="0 0 275 275" fill="none" xmlns="http://www.w3.org/2000/svg">
<path d="M168.056 103.125H179.514V91.6667H168.056V103.125Z" fill="black"/>
<path d="M179.514 114.583H190.972V103.125H179.514V114.583Z" fill="black"/>
<path d="M179.514 171.875H190.972V160.417H179.514V171.875Z" fill="black"/>
<path d="M168.056 183.333H179.514V171.875H168.056V183.333Z" fill="black"/>
<path d="M145.139 126.042H156.597V114.583H145.139V126.042Z" fill="black"/>
<path d="M145.139 160.417H156.597V148.958H145.139V160.417Z" fill="black"/>
<path d="M202.431 114.583H190.972V160.417H202.431V114.583Z" fill="black"/>
<path d="M168.056 126.042H156.597V148.958H168.056V126.042Z" fill="black"/>
<path d="M87.8472 194.792V206.25H110.764V194.792H87.8472Z" fill="black"/>
<path d="M64.9305 183.333V194.792H87.8472V183.333H64.9305Z" fill="black"/>
<path d="M42.0139 171.875V183.333H64.9305V171.875H42.0139Z" fill="black"/>
<path d="M42.0139 103.125H30.5555V171.875H42.0139V103.125Z" fill="black"/>
<path d="M64.9305 103.125V91.6667H42.0139V103.125H64.9305Z" fill="black"/>
<path d="M87.8472 91.6667V80.2083H64.9305V91.6667H87.8472Z" fill="black"/>
<path d="M110.764 80.2083V68.75H87.8472V80.2083H110.764Z" fill="black"/>
<path d="M110.764 194.792H122.222V80.2083H110.764V194.792Z" fill="black"/>
<path d="M210.069 91.6667H221.528V80.2083H210.069V91.6667Z" fill="black"/>
<path d="M210.069 194.792H221.528V183.333H210.069V194.792Z" fill="black"/>
<path d="M221.528 183.333H232.986V160.417H221.528V183.333Z" fill="black"/>
<path d="M244.444 114.583H232.986V160.417H244.444V114.583Z" fill="black"/>
<path d="M232.986 91.6667H221.528V114.583H232.986V91.6667Z" fill="black"/>
</svg>
