<svg width="76" height="90" viewBox="0 0 76 90" fill="currentColor" xmlns="http://www.w3.org/2000/svg">
<path d="M76 21.4312H71.7885V38.5593H76V21.4312Z" fill="current"/>
<path d="M71.7887 38.5593H67.5772V42.8624H71.7887V38.5593Z" fill="current"/>
<path d="M71.7887 17.1562H67.5772V21.4312H71.7887V17.1562Z" fill="current"/>
<path d="M63.3379 55.7156H71.7885V59.9906H63.3379V72.8719H71.7885V77.1469H63.3379V85.725H67.577V81.4219H75.9999V68.5687H67.577V64.2937H75.9999V51.4406H67.577V42.8625H63.3379V55.7156Z" fill="current"/>
<path d="M63.3379 85.725H54.8873V90H63.3379V85.725Z" fill="current"/>
<path d="M50.676 12.8531V17.1562H59.1266V21.4312H50.676V34.2844H67.5772V21.4312H63.338V17.1562H67.5772V12.8531H63.338V8.57812H59.1266V12.8531H50.676ZM59.1266 30.0094H54.9013V25.7062H59.1404L59.1266 30.0094Z" fill="current"/>
<path d="M59.1264 4.27496H54.8873V8.57809H59.1264V4.27496Z" fill="current"/>
<path d="M54.8874 42.8624H50.6759V38.5593H46.4645V47.1374H50.6759V85.7249H54.8874V42.8624Z" fill="current"/>
<path d="M50.6759 17.1562H46.4645V21.4312H50.6759V17.1562Z" fill="current"/>
<path d="M38.0138 25.7062V34.2843H42.2252V38.5593H46.4644V21.4312H42.2252V25.7062H38.0138Z" fill="current"/>
<path d="M46.4645 47.1375H33.7747V51.4406H46.4645V47.1375Z" fill="current"/>
<path d="M42.2253 17.1562H33.7747V21.4312H42.2253V17.1562Z" fill="current"/>
<path d="M54.8874 0H33.7747V4.275H54.8874V0Z" fill="current"/>
<path d="M38.0139 64.2937H33.7747V68.5687H38.0139V64.2937Z" fill="current"/>
<path d="M33.7746 68.5687H29.5632V72.8719H33.7746V68.5687Z" fill="current"/>
<path d="M33.7746 59.9907H29.5632V64.2938H33.7746V59.9907Z" fill="current"/>
<path d="M33.7746 51.4407H29.5632V55.7157H33.7746V51.4407Z" fill="current"/>
<path d="M33.7746 21.4312H29.5632V25.7062H33.7746V21.4312Z" fill="current"/>
<path d="M33.7746 4.27496H29.5632V8.57809H33.7746V4.27496Z" fill="current"/>
<path d="M29.5633 72.8718H25.3519V77.1468H29.5633V72.8718Z" fill="current"/>
<path d="M29.5633 55.7156H25.3519V59.9906H29.5633V55.7156Z" fill="current"/>
<path d="M29.5633 25.7062H25.3519V42.8625H29.5633V25.7062Z" fill="current"/>
<path d="M29.5633 8.57812H25.3519V21.4312H29.5633V8.57812Z" fill="current"/>
<path d="M25.3517 68.5687H21.1125V72.8719H25.3517V68.5687Z" fill="current"/>
<path d="M25.3517 42.8625H21.1125V47.1375H25.3517V42.8625Z" fill="current"/>
<path d="M21.1127 64.2937H16.9012V68.5687H21.1127V64.2937Z" fill="current"/>
<path d="M21.1127 47.1375H16.9012V51.4406H21.1127V47.1375Z" fill="current"/>
<path d="M16.9012 68.5687H12.6898V72.8719H16.9012V68.5687Z" fill="current"/>
<path d="M16.9012 51.4407H12.6898V55.7157H16.9012V51.4407Z" fill="current"/>
<path d="M12.6898 72.8718H8.45062V77.1468H12.6898V72.8718Z" fill="current"/>
<path d="M12.6898 55.7156H8.45062V59.9906H12.6898V55.7156Z" fill="current"/>
<path d="M8.45058 68.5687H4.23914V72.8719H8.45058V68.5687Z" fill="current"/>
<path d="M8.45058 59.9907H4.23914V64.2938H8.45058V59.9907Z" fill="current"/>
<path d="M4.23916 64.2937H0V68.5687H4.23916V64.2937Z" fill="current"/>
</svg>
