<svg width="400" height="225" viewBox="0 0 400 225" fill="currentColor" xmlns="http://www.w3.org/2000/svg">
<path d="M26.1053 25.2632V49.6842H0V174.316H26.1053V197.895H49.6842V224.842H351.158V197.895H374.737V174.316H400V49.6842H374.737V25.2632H351.158V48.4211H373.895V174.316H351.158V197.053H50.5263V174.316H26.5263V48.4211H50.5263V24.8422H351.158V0H49.6842V25.2632H26.1053Z" fill="current"/>
<path d="M116.141 146V72.6667H156.141V79.3333H162.807V106H156.141V112.667H162.807V139.333H156.141V146H116.141ZM129.474 132.667H149.474V112.667H129.474V132.667ZM129.474 99.3333H149.474V86H129.474V99.3333Z" fill="current"/>
<path d="M169.5 146V126H176.167V106H182.833V86H189.5V72.6667H202.833V86H209.5V106H216.167V126H222.833V146H209.5V132.667H182.833V146H169.5ZM189.5 119.333H202.833V106H189.5V119.333Z" fill="current"/>
<path d="M229.5 139.333V79.3333H236.167V72.6667H269.5V79.3333H276.167V92.6667H262.833V86H242.833V132.667H262.833V126H276.167V139.333H269.5V146H236.167V139.333H229.5Z" fill="current"/>
<path d="M282.859 146V72.6667H296.193V99.3333H302.859V92.6667H309.526V86H316.193V79.3333H322.859V72.6667H336.193V86H329.526V92.6667H322.859V99.3333H316.193V106H309.526V112.667H316.193V119.333H322.859V126H329.526V132.667H336.193V146H322.859V139.333H316.193V132.667H309.526V126H302.859V119.333H296.193V146H282.859Z" fill="current"/>
<path d="M43.2646 115V107.5H50.7646V100H58.2646V92.5H65.7646V85H73.2646V77.5H88.2646V92.5H80.7646V100H73.2646V107.5H65.7646V115H73.2646V122.5H80.7646V130H88.2646V145H73.2646V137.5H65.7646V130H58.2646V122.5H50.7646V115H43.2646Z" fill="current"/>
</svg>
