<svg width="437" height="100" viewBox="0 0 437 100" fill="none" xmlns="http://www.w3.org/2000/svg">
<path d="M95.2334 71.4346H80.9522V66.6533H85.7021V61.9033H14.2959V66.6533H19.0615V71.4346H4.76465V99.9971H95.2334V71.4346ZM23.7959 66.6533H76.1709V71.4346H23.7959V66.6533ZM90.4834 95.2471H9.51465V76.1846H90.4834V95.2471Z" fill="black"/>
<path d="M90.4805 4.75269H85.6992V61.9089H90.4805V4.75269Z" fill="black"/>
<path d="M80.9531 80.9353H57.1406V85.7166H80.9531V80.9353Z" fill="black"/>
<path d="M61.8906 33.3442H57.1406V38.0942H61.8906V33.3442Z" fill="black"/>
<path d="M61.8906 23.8065H57.1406V28.5565H61.8906V23.8065Z" fill="black"/>
<path d="M57.1416 38.0968H42.8604V42.8468H57.1416V38.0968Z" fill="black"/>
<path d="M42.8574 33.3431H38.0762V38.0931H42.8574V33.3431Z" fill="black"/>
<path d="M42.8574 23.8173H38.0762V28.5673H42.8574V23.8173Z" fill="black"/>
<path d="M19.0654 57.152H80.9717V9.52698H19.0654V57.152ZM23.7998 14.277H76.1748V52.3707H23.7998V14.277Z" fill="black"/>
<path d="M28.5762 80.9353H19.0449V90.4666H28.5762V80.9353Z" fill="black"/>
<path d="M85.708 0H14.3018V4.75H85.708V0Z" fill="black"/>
<path d="M14.2988 4.75269H9.51758V61.9089H14.2988V4.75269Z" fill="black"/>
<path d="M118 76V58H124V46H130V34H118V22H130V16H142V22H148V34H136V46H142V58H148V76H136V64H130V76H118ZM154 82V16H160V40H166V16H178V82H166V52H160V82H154ZM190 46V16H202V34H220V22H238V16H250V46H238V34H232V46H190ZM196 82V64H220V70H250V82H196ZM196 58V52H250V64H220V58H196ZM292.023 52V40H298.023V34H304.023V16H316.023V34H322.023V40H328.023V52H316.023V46H304.023V52H292.023ZM328.023 40V28H340.023V16H352.023V58H340.023V40H328.023ZM298.023 82V58H310.023V70H352.023V82H298.023ZM364.023 52V16H394.023V22H376.023V28H394.023V34H376.023V40H394.023V52H364.023ZM400.023 52V16H406.023V28H412.023V16H424.023V52H412.023V40H406.023V52H400.023ZM412.023 70H370.023V58H424.023V82H412.023V70Z" fill="black"/>
</svg>
