<svg width="95" height="95" viewBox="0 0 95 95" fill="none" xmlns="http://www.w3.org/2000/svg">
<path d="M19 83.125L9.50001 83.125L9.50001 71.25L19 71.25L19 83.125ZM85.5 83.125L76 83.125L76 71.25L85.5 71.25L85.5 83.125ZM76 83.125L76 95L19 95L19 83.125L76 83.125ZM19 -3.32207e-06L76 -8.30517e-07L76 11.875L19 11.875L19 -3.32207e-06ZM19 11.875L19 23.75L9.50001 23.75L9.50001 11.875L19 11.875ZM76 11.875L85.5 11.875L85.5 23.75L76 23.75L76 11.875ZM9.50001 23.75L9.50001 71.25L5.07127e-06 71.25L7.14756e-06 23.75L9.50001 23.75ZM85.5 23.75L95 23.75L95 71.25L85.5 71.25L85.5 23.75Z" fill="white"/>
</svg>
