<svg width="742" height="146" viewBox="0 0 742 146" fill="none" xmlns="http://www.w3.org/2000/svg">
<path d="M159.98 53.3333V40H163.314V36.6667H173.314V40H176.647V53.3333H173.314V56.6667H163.314V53.3333H159.98ZM159.98 26.6667H166.647V23.3333H173.314V26.6667H176.647V33.3333H159.98V26.6667ZM166.647 50H169.98V43.3333H166.647V50ZM179.98 60V23.3333H183.314V36.6667H186.647V23.3333H193.314V60H186.647V43.3333H183.314V60H179.98ZM199.98 43.3333V23.3333H219.98V30H206.647V36.6667H223.314V43.3333H199.98ZM229.98 56.6667V60H206.647V56.6667H203.314V50H206.647V46.6667H229.98V50H233.314V56.6667H229.98ZM236.647 36.6667H233.314V43.3333H226.647V23.3333H233.314V30H236.647V36.6667ZM226.647 53.3333V50H209.98V53.3333H226.647ZM256.66 56.6667V50H263.327V46.6667H266.66V40H269.993V30H256.66V23.3333H276.66V43.3333H273.327V50H269.993V53.3333H266.66V56.6667H256.66ZM283.327 60V23.3333H289.993V60H283.327ZM296.66 43.3333V40H333.327V43.3333H296.66ZM326.66 56.6667V60H303.327V56.6667H299.993V50H303.327V46.6667H326.66V50H329.993V56.6667H326.66ZM323.327 53.3333V50H306.66V53.3333H323.327ZM299.993 23.3333H306.66V30H329.993V36.6667H299.993V23.3333ZM366.66 23.3333V26.6667H369.993V33.3333H366.66V36.6667H343.327V33.3333H339.993V26.6667H343.327V23.3333H366.66ZM336.66 46.6667V40H373.327V46.6667H336.66ZM363.327 30V26.6667H346.66V30H363.327ZM339.993 60V50H346.66V53.3333H369.993V60H339.993ZM393.34 53.3333V26.6667H396.673V23.3333H410.007V26.6667H413.34V53.3333H410.007V56.6667H396.673V53.3333H393.34ZM420.007 60V23.3333H426.673V36.6667H430.007V43.3333H426.673V60H420.007ZM400.007 50H406.673V30H400.007V50ZM433.34 43.3333V36.6667H436.673V33.3333H440.007V30H433.34V23.3333H453.34V30H446.673V33.3333H450.007V36.6667H453.34V43.3333H446.673V40H440.007V43.3333H433.34ZM460.007 53.3333H436.673V46.6667H466.673V60H460.007V53.3333ZM460.007 43.3333V23.3333H466.673V43.3333H460.007ZM610.02 40V26.6667H613.353V23.3333H626.686V26.6667H630.02V40H626.686V43.3333H620.02V46.6667H636.686V23.3333H643.353V60H613.353V40H610.02ZM616.686 36.6667H623.353V30H616.686V36.6667ZM636.686 53.3333V50H620.02V53.3333H636.686ZM650.02 56.6667V23.3333H656.686V50H673.353V56.6667H650.02ZM676.686 60V23.3333H683.353V60H676.686ZM690.02 56.6667V23.3333H710.02V30H696.686V50H713.353V56.6667H690.02ZM716.686 60V23.3333H723.353V36.6667H726.686V43.3333H723.353V60H716.686ZM730.02 53.3333H736.686V60H730.02V53.3333ZM256.66 109.667V103H273.327V96.3333H279.993V103H293.327V109.667H256.66ZM286.66 89.6667V93H289.993V99.6667H283.327V96.3333H279.993V93H276.66V89.6667H273.327V93H269.993V96.3333H266.66V99.6667H259.993V93H263.327V89.6667H266.66V86.3333H269.993V83H259.993V76.3333H289.993V83H279.993V86.3333H283.327V89.6667H286.66ZM323.327 106.333V103H306.66V106.333H323.327ZM299.993 76.3333H329.993V89.6667H333.327V96.3333H296.66V89.6667H323.327V83H299.993V76.3333ZM299.993 113V99.6667H329.993V113H299.993ZM336.66 96.3333V76.3333H356.66V96.3333H336.66ZM363.327 99.6667V76.3333H369.993V83H373.327V89.6667H369.993V99.6667H363.327ZM339.993 113V99.6667H346.66V106.333H369.993V113H339.993ZM343.327 89.6667H349.993V83H343.327V89.6667ZM393.34 109.667V103H400.007V99.6667H403.34V93H406.673V83H393.34V76.3333H413.34V96.3333H410.007V103H406.673V106.333H403.34V109.667H393.34ZM420.007 113V76.3333H426.673V113H420.007ZM433.34 109.667V76.3333H453.34V83H440.007V103H456.673V109.667H433.34ZM460.007 113V76.3333H466.673V89.6667H470.007V96.3333H466.673V113H460.007ZM473.34 109.667V89.6667H486.673V83H473.34V76.3333H493.34V83H500.007V76.3333H506.673V113H500.007V99.6667H493.34V96.3333H480.007V103H496.673V109.667H473.34ZM500.007 93V89.6667H493.34V93H500.007ZM513.34 96.3333H550.007V103H536.673V113H530.007V103H513.34V96.3333ZM526.673 89.6667V93H516.673V86.3333H523.34V83H516.673V76.3333H546.673V83H540.007V86.3333H546.673V93H536.673V89.6667H533.34V86.3333H530.007V89.6667H526.673ZM553.34 109.667V99.6667H556.673V89.6667H560.007V76.3333H566.673V86.3333H573.34V76.3333H576.673V113H573.34V109.667H566.673V103H560.007V109.667H553.34ZM573.34 99.6667V93H570.007V99.6667H573.34ZM580.007 113V76.3333H586.673V113H580.007ZM593.34 109.667V103H600.007V93H596.673V79.6667H600.007V76.3333H623.34V79.6667H626.673V93H623.34V103H630.007V109.667H593.34ZM620.007 89.6667V83H603.34V89.6667H620.007ZM606.673 96.3333V103H616.673V96.3333H606.673ZM633.34 106.333H640.007V113H633.34V106.333ZM633.34 103V76.3333H640.007V103H633.34Z" fill="black"/>
<path d="M490.02 56.6667V50H493.353V46.6667H496.686V40H500.02V30H490.02V23.3333H506.686V43.3333H503.353V50H500.02V53.3333H496.686V56.6667H490.02ZM510.02 60V23.3333H513.353V36.6667H516.686V23.3333H523.353V60H516.686V43.3333H513.353V60H510.02ZM530.02 40V23.3333H536.686V26.6667H543.353V23.3333H550.02V40H530.02ZM536.686 30V33.3333H543.353V30H536.686ZM566.686 33.3333H563.353V40H556.686V23.3333H563.353V26.6667H566.686V33.3333ZM533.353 60V50H546.686V53.3333H563.353V60H533.353ZM533.353 46.6667V43.3333H563.353V50H546.686V46.6667H533.353ZM570.02 43.3333V40H606.686V43.3333H593.353V46.6667H600.02V50H603.353V56.6667H600.02V60H576.686V56.6667H573.353V50H576.686V46.6667H586.686V43.3333H570.02ZM583.353 36.6667H573.353V33.3333H580.02V30H573.353V23.3333H603.353V30H596.686V33.3333H603.353V36.6667H593.353V33.3333H590.02V30H586.686V33.3333H583.353V36.6667ZM596.686 53.3333V50H580.02V53.3333H596.686Z" fill="#B93232"/>
<path d="M137.115 20.565H130.275V13.725H123.39V6.84H109.71V0H34.2449V6.84H82.2599V13.725H95.9849V20.565H102.825V27.45H109.71V61.695H102.825V68.58H95.9849V137.16H20.5649V144H116.55V137.16H123.39V130.275H130.275V123.435H137.115V61.695H144V27.45H137.115V20.565Z" fill="black"/>
<path d="M75.4202 95.985H68.5352V102.87H75.4202V95.985Z" fill="black"/>
<path d="M68.5348 82.3051H61.6948V89.145H68.5348V82.3051Z" fill="black"/>
<path d="M68.5349 102.87H41.1299V109.71H68.5349V102.87Z" fill="black"/>
<path d="M47.9699 82.3051H41.1299V89.145H47.9699V82.3051Z" fill="black"/>
<path d="M41.1301 95.985H34.2451V102.87H41.1301V95.985Z" fill="black"/>
<path d="M34.2449 6.83997H20.5649V13.725H34.2449V6.83997Z" fill="black"/>
<path d="M20.5652 68.58H13.6802V137.16H20.5652V68.58Z" fill="black"/>
<path d="M20.5652 13.725H13.6802V20.565H20.5652V13.725Z" fill="black"/>
<path d="M13.6798 61.6949H6.83984V68.5799H13.6798V61.6949Z" fill="black"/>
<path d="M13.6798 20.5649H6.83984V27.4499H13.6798V20.5649Z" fill="black"/>
<path d="M6.84 27.45H0V61.695H6.84V27.45Z" fill="black"/>
</svg>
