<svg width="400" height="225" viewBox="0 0 400 225" fill="currentColor" xmlns="http://www.w3.org/2000/svg">
<path d="M26.1053 25.2632V49.6842H0V174.316H26.1053V197.895H49.6842V224.842H351.158V197.895H374.737V174.316H400V49.6842H374.737V25.2632H351.158V48.4211H373.895V174.316H351.158V197.053H50.5263V174.316H26.5263V48.4211H50.5263V24.8422H351.158V0H49.6842V25.2632H26.1053Z" fill="#A4A4A4"/>
<path d="M43.2646 115V107.5H50.7646V100H58.2646V92.5H65.7646V85H73.2646V77.5H88.2646V92.5H80.7646V100H73.2646V107.5H65.7646V115H73.2646V122.5H80.7646V130H88.2646V145H73.2646V137.5H65.7646V130H58.2646V122.5H50.7646V115H43.2646Z" fill="#A4A4A4"/>
<path d="M117 149V75.6667H130.333V102.333H150.333V75.6667H163.667V149H150.333V115.667H130.333V149H117Z" fill="#A4A4A4"/>
<path d="M170.359 142.333V82.3333H177.026V75.6667H210.359V82.3333H217.026V142.333H210.359V149H177.026V142.333H170.359ZM183.693 135.667H203.693V89H183.693V135.667Z" fill="#A4A4A4"/>
<path d="M223.719 149V75.6667H237.052V89H243.719V102.333H250.385V115.667H257.052V102.333H263.719V89H270.385V75.6667H283.719V149H270.385V122.333H263.719V135.667H257.052V149H250.385V135.667H243.719V122.333H237.052V149H223.719Z" fill="#A4A4A4"/>
<path d="M290.359 149V75.6667H330.359V89H303.693V102.333H330.359V115.667H303.693V135.667H330.359V149H290.359Z" fill="#A4A4A4"/>
</svg>
