<svg width="290" height="111" viewBox="0 0 290 111" fill="none" xmlns="http://www.w3.org/2000/svg">
<path d="M47.3438 52.6667V47.3333H52.6771V42H58.0104V36.6667H63.3438V31.3333H68.6771V26H79.3438V36.6667H74.0104V42H68.6771V47.3333H63.3438V52.6667H68.6771V58H74.0104V63.3333H79.3438V74H68.6771V68.6667H63.3438V63.3333H58.0104V58H52.6771V52.6667H47.3438Z" fill="white"/>
<path d="M106.469 71V27H114.469V43H126.469V27H134.469V71H126.469V51H114.469V71H106.469ZM138.484 67V43H142.484V39H162.484V43H166.484V67H162.484V71H142.484V67H138.484ZM146.484 63H158.484V47H146.484V63ZM170.5 71V39H178.5V43H182.5V39H190.5V43H198.5V39H206.5V43H210.5V71H202.5V47H198.5V51H194.5V71H186.5V47H182.5V51H178.5V71H170.5ZM214.516 67V43H218.516V39H238.516V43H242.516V59H222.516V63H242.516V71H218.516V67H214.516ZM222.516 51H234.516V47H222.516V51Z" fill="white"/>
<g filter="url(#filter0_di_48_1846)">
<rect x="6.5" y="2.5" width="277" height="98" rx="13.5" stroke="#EBE2FF" stroke-opacity="0.4" stroke-width="5" shape-rendering="crispEdges"/>
</g>
<defs>
<filter id="filter0_di_48_1846" x="0" y="0" width="290" height="111" filterUnits="userSpaceOnUse" color-interpolation-filters="sRGB">
<feFlood flood-opacity="0" result="BackgroundImageFix"/>
<feColorMatrix in="SourceAlpha" type="matrix" values="0 0 0 0 0 0 0 0 0 0 0 0 0 0 0 0 0 0 127 0" result="hardAlpha"/>
<feOffset dy="4"/>
<feGaussianBlur stdDeviation="2"/>
<feComposite in2="hardAlpha" operator="out"/>
<feColorMatrix type="matrix" values="0 0 0 0 0.700405 0 0 0 0 0.700405 0 0 0 0 0.700405 0 0 0 0.25 0"/>
<feBlend mode="normal" in2="BackgroundImageFix" result="effect1_dropShadow_48_1846"/>
<feBlend mode="normal" in="SourceGraphic" in2="effect1_dropShadow_48_1846" result="shape"/>
<feColorMatrix in="SourceAlpha" type="matrix" values="0 0 0 0 0 0 0 0 0 0 0 0 0 0 0 0 0 0 127 0" result="hardAlpha"/>
<feOffset dy="4"/>
<feGaussianBlur stdDeviation="2"/>
<feComposite in2="hardAlpha" operator="arithmetic" k2="-1" k3="1"/>
<feColorMatrix type="matrix" values="0 0 0 0 0 0 0 0 0 0 0 0 0 0 0 0 0 0 0.25 0"/>
<feBlend mode="normal" in2="shape" result="effect2_innerShadow_48_1846"/>
</filter>
</defs>
</svg>
