<svg width="362" height="143" viewBox="0 0 362 143" fill="none" xmlns="http://www.w3.org/2000/svg">
<path d="M12.335 130.205V38.5382H29.0017V55.2048H37.335V71.8715H45.6684V88.5382H54.0017V71.8715H62.335V55.2048H70.6684V38.5382H87.335V130.205H70.6684V96.8715H62.335V113.538H54.0017V130.205H45.6684V113.538H37.335V96.8715H29.0017V130.205H12.335ZM95.6358 121.872V38.5382H112.302V113.538H137.302V38.5382H153.969V121.872H145.636V130.205H103.969V121.872H95.6358ZM162.335 121.872V105.205H179.002V113.538H204.002V96.8715H187.335V88.5382H170.668V80.2048H162.335V46.8715H170.668V38.5382H212.335V46.8715H220.668V63.5382H204.002V55.2048H179.002V71.8715H195.668V80.2048H212.335V88.5382H220.668V121.872H212.335V130.205H170.668V121.872H162.335ZM229.034 113.538H237.368V55.2048H229.034V38.5382H262.368V55.2048H254.034V113.538H262.368V130.205H229.034V113.538ZM270.733 119.372V21.8715H281.567V11.0382H335.733V21.8715H346.567V97.7048H335.733V108.538H346.567V130.205H324.9V119.372H314.067V130.205H281.567V119.372H270.733ZM292.4 108.538H303.233V86.8715H324.9V32.7048H292.4V108.538Z" fill="#5D5D5D"/>
<path d="M3.74251 122V30.3333H20.4092V47H28.7425V63.6667H37.0758V80.3333H45.4092V63.6667H53.7425V47H62.0758V30.3333H78.7425V122H62.0758V88.6667H53.7425V105.333H45.4092V122H37.0758V105.333H28.7425V88.6667H20.4092V122H3.74251ZM87.0433 113.667V30.3333H103.71V105.333H128.71V30.3333H145.377V113.667H137.043V122H95.3766V113.667H87.0433ZM153.743 113.667V97H170.409V105.333H195.409V88.6667H178.743V80.3333H162.076V72H153.743V38.6667H162.076V30.3333H203.743V38.6667H212.076V55.3333H195.409V47H170.409V63.6667H187.076V72H203.743V80.3333H212.076V113.667H203.743V122H162.076V113.667H153.743ZM220.442 105.333H228.775V47H220.442V30.3333H253.775V47H245.442V105.333H253.775V122H220.442V105.333Z" fill="#080808"/>
<path d="M262.141 111.167V13.6667H272.974V2.83333H327.141V13.6667H337.974V89.5H327.141V100.333H337.974V122H316.308V111.167H305.474V122H272.974V111.167H262.141ZM283.808 100.333H294.641V78.6667H316.308V24.5H283.808V100.333Z" fill="#FCFF5D"/>
</svg>
