<svg width="728" height="144" viewBox="0 0 728 144" fill="none" xmlns="http://www.w3.org/2000/svg">
<path d="M157.641 54.6667V48H174.307V41.3333H160.974V21.3333H190.974V41.3333H180.974V48H194.307V54.6667H157.641ZM184.307 34.6667V28H167.641V34.6667H184.307ZM197.641 54.6667V21.3333H204.307V31.3333H210.974V21.3333H217.641V54.6667H197.641ZM224.307 58V21.3333H230.974V34.6667H234.307V41.3333H230.974V58H224.307ZM204.307 48H210.974V38H204.307V48ZM237.641 34.6667V24.6667H240.974V21.3333H254.307V24.6667H257.641V34.6667H254.307V38H240.974V34.6667H237.641ZM244.307 28V31.3333H250.974V28H244.307ZM264.307 38V21.3333H270.974V38H264.307ZM240.974 58V48H254.307V51.3333H270.974V58H240.974ZM240.974 44.6667V41.3333H270.974V48H254.307V44.6667H240.974Z" fill="#B93232"/>
<path d="M294.32 54.6667V21.3333H300.987V31.3333H307.654V21.3333H314.32V34.6667H320.987V21.3333H327.654V58H320.987V41.3333H314.32V54.6667H294.32ZM300.987 48H307.654V38H300.987V48ZM334.32 41.3333V34.6667H337.654V31.3333H340.987V28H334.32V21.3333H354.32V28H347.654V31.3333H350.987V34.6667H354.32V41.3333H347.654V38H340.987V41.3333H334.32ZM354.32 34.6667V28H360.987V21.3333H367.654V44.6667H360.987V34.6667H354.32ZM337.654 58V44.6667H344.32V51.3333H367.654V58H337.654ZM404.32 21.3333V24.6667H407.654V31.3333H404.32V34.6667H380.987V31.3333H377.654V24.6667H380.987V21.3333H404.32ZM374.32 44.6667V38H410.987V44.6667H374.32ZM400.987 28V24.6667H384.32V28H400.987ZM377.654 58V48H384.32V51.3333H407.654V58H377.654ZM431 41.3333V38H467.667V41.3333H454.333V48H447.667V41.3333H431ZM444.333 34.6667H434.333V31.3333H441V28H434.333V21.3333H464.333V28H457.667V31.3333H464.333V34.6667H454.333V31.3333H451V28H447.667V31.3333H444.333V34.6667ZM434.333 58V44.6667H441V51.3333H464.333V58H434.333ZM471 54.6667V21.3333H477.667V31.3333H484.333V21.3333H491V54.6667H471ZM497.667 58V21.3333H504.333V58H497.667ZM477.667 48H484.333V38H477.667V48ZM527.68 41.3333V38H564.346V41.3333H551.013V44.6667H557.68V48H561.013V54.6667H557.68V58H534.346V54.6667H531.013V48H534.346V44.6667H544.346V41.3333H527.68ZM541.013 34.6667H531.013V31.3333H537.68V28H531.013V21.3333H561.013V28H554.346V31.3333H561.013V34.6667H551.013V31.3333H547.68V28H544.346V31.3333H541.013V34.6667ZM554.346 51.3333V48H537.68V51.3333H554.346ZM584.359 38V24.6667H587.693V21.3333H601.026V24.6667H604.359V38H601.026V41.3333H594.359V44.6667H611.026V21.3333H617.693V58H587.693V38H584.359ZM591.026 34.6667H597.693V28H591.026V34.6667ZM611.026 51.3333V48H594.359V51.3333H611.026ZM624.359 54.6667V21.3333H631.026V48H647.693V54.6667H624.359ZM651.026 58V21.3333H657.693V58H651.026ZM664.359 54.6667V21.3333H684.359V28H671.026V48H687.693V54.6667H664.359ZM691.026 58V21.3333H697.693V34.6667H701.026V41.3333H697.693V58H691.026ZM704.359 51.3333H711.026V58H704.359V51.3333ZM309.34 107.667V101H326.007V97.6667H312.673V84.3333H336.007V81H312.673V74.3333H342.673V87.6667H319.34V91H342.673V97.6667H332.673V101H346.007V107.667H309.34ZM366.02 94.3333V87.6667H369.353V84.3333H372.686V81H366.02V74.3333H386.02V81H379.353V84.3333H382.686V87.6667H386.02V94.3333H379.353V91H372.686V94.3333H376.02V97.6667H392.686V87.6667H386.02V81H392.686V74.3333H399.353V111H369.353V94.3333H366.02ZM392.686 104.333V101H376.02V104.333H392.686ZM406.02 94.3333V91H422.686V87.6667H429.353V91H442.686V94.3333H406.02ZM419.353 87.6667H409.353V81H416.02V77.6667H419.353V74.3333H429.353V77.6667H432.686V81H439.353V87.6667H429.353V84.3333H426.02V81H422.686V84.3333H419.353V87.6667ZM432.686 104.333H409.353V97.6667H439.353V111H432.686V104.333ZM446.02 104.333V91H449.353V87.6667H459.353V91H462.686V104.333H459.353V107.667H449.353V104.333H446.02ZM446.02 77.6667H452.686V74.3333H459.353V77.6667H462.686V84.3333H446.02V77.6667ZM452.686 101H456.02V94.3333H452.686V101ZM466.02 111V74.3333H469.353V87.6667H472.686V74.3333H479.353V111H472.686V94.3333H469.353V111H466.02ZM486.02 94.3333H522.686V101H509.353V111H502.686V101H486.02V94.3333ZM499.353 87.6667V91H489.353V84.3333H496.02V81H489.353V74.3333H519.353V81H512.686V84.3333H519.353V91H509.353V87.6667H506.02V84.3333H502.686V87.6667H499.353ZM526.02 107.667V97.6667H529.353V87.6667H532.686V74.3333H539.353V84.3333H546.02V74.3333H549.353V111H546.02V107.667H539.353V101H532.686V107.667H526.02ZM546.02 97.6667V91H542.686V97.6667H546.02ZM552.686 111V74.3333H559.353V111H552.686ZM566.02 107.667V101H572.686V91H569.353V77.6667H572.686V74.3333H596.02V77.6667H599.353V91H596.02V101H602.686V107.667H566.02ZM592.686 87.6667V81H576.02V87.6667H592.686ZM579.353 94.3333V101H589.353V94.3333H579.353ZM606.02 104.333H612.686V111H606.02V104.333ZM606.02 101V74.3333H612.686V101H606.02Z" fill="black"/>
<path d="M255.98 111V74.3333H275.98V77.6667H279.314V94.3333H275.98V97.6667H262.647V111H255.98ZM262.647 91H272.647V81H262.647V91ZM282.66 107.667V77.6667H285.993V74.3333H302.66V77.6667H305.993V84.3333H299.327V81H289.327V104.333H299.327V101H305.993V107.667H302.66V111H285.993V107.667H282.66Z" fill="#2D54B8"/>
<path d="M137.115 20.565H130.275V13.725H123.39V6.84H109.71V0H34.2449V6.84H82.2599V13.725H95.9849V20.565H102.825V27.45H109.71V61.695H102.825V68.58H95.9849V137.16H20.5649V144H116.55V137.16H123.39V130.275H130.275V123.435H137.115V61.695H144V27.45H137.115V20.565Z" fill="black"/>
<path d="M75.4202 95.985H68.5352V102.87H75.4202V95.985Z" fill="black"/>
<path d="M68.5348 82.305H61.6948V89.145H68.5348V82.305Z" fill="black"/>
<path d="M68.5349 102.87H41.1299V109.71H68.5349V102.87Z" fill="black"/>
<path d="M47.9699 82.305H41.1299V89.145H47.9699V82.305Z" fill="black"/>
<path d="M41.1301 95.985H34.2451V102.87H41.1301V95.985Z" fill="black"/>
<path d="M34.2449 6.84H20.5649V13.725H34.2449V6.84Z" fill="black"/>
<path d="M20.5652 68.58H13.6802V137.16H20.5652V68.58Z" fill="black"/>
<path d="M20.5652 13.725H13.6802V20.565H20.5652V13.725Z" fill="black"/>
<path d="M13.6798 61.695H6.83984V68.58H13.6798V61.695Z" fill="black"/>
<path d="M13.6798 20.565H6.83984V27.45H13.6798V20.565Z" fill="black"/>
<path d="M6.84 27.45H0V61.695H6.84V27.45Z" fill="black"/>
</svg>
