<svg width="169" height="100" viewBox="0 0 169 100" fill="none" xmlns="http://www.w3.org/2000/svg">
<path d="M118.333 25V20.8333H114.167V16.6667H110V12.5H68.3333V16.6667H64.1667V20.8333H60V25H55.8333V20.8333V16.6667H47.5V41.6667H72.5V33.3333H64.1667V29.1667H68.3333V25H72.5V20.8333H101.667V25H105.833V29.1667H110V33.3333H114.167V66.6667H110V70.8333H105.833V75H101.667V79.1667H72.5V75H68.3333V70.8333H64.1667V66.6667H60V62.5H51.6667V75H55.8333V79.1667H60V83.3333H64.1667V87.5H110V83.3333H114.167V79.1667H118.333V75H122.5V25H118.333Z" fill="#FF001F"/>
<path d="M4.5 62.6667V29.3333H24.5V36H11.1667V56H27.8333V62.6667H4.5ZM31.1667 66V29.3333H37.8333V42.6667H41.1667V49.3333H37.8333V66H31.1667ZM44.5 62.6667V52.6667H47.8333V42.6667H51.1667V29.3333H57.8333V42.6667H61.1667V52.6667H64.5V62.6667H57.8333V56H51.1667V62.6667H44.5ZM71.1667 66V29.3333H77.8333V66H71.1667ZM84.5 32.6667H94.5V29.3333H101.167V32.6667H111.167V29.3333H117.833V42.6667H121.167V49.3333H117.833V66H111.167V39.3333H84.5V32.6667ZM91.1667 59.3333H87.8333V46H91.1667V42.6667H104.5V46H107.833V59.3333H104.5V62.6667H91.1667V59.3333ZM94.5 49.3333V56H101.167V49.3333H94.5ZM124.5 62.6667V56H131.167V52.6667H134.5V46H137.833V36H124.5V29.3333H144.5V49.3333H141.167V56H137.833V59.3333H134.5V62.6667H124.5ZM151.167 66V29.3333H157.833V66H151.167Z" fill="black"/>
</svg>
