<svg width="169" height="100" viewBox="0 0 169 100" fill="none" xmlns="http://www.w3.org/2000/svg">
<path d="M122.5 20.8333V16.6667H118.334V12.5H114.167V8.33334H55.8335V12.5H51.6668V16.6667H47.5002V20.8333H43.3335V62.5H47.5002V66.6667H51.6668V70.8333H55.8335V75H60.0002V91.6667H76.6668V87.5H80.8335V83.3333H85.0002V79.1667H89.1668V75H114.167V70.8333H118.334V66.6667H122.5V62.5H126.667V20.8333H122.5ZM118.334 54.1667H114.167V58.3333H110V62.5H105.834V66.6667H85.0002V70.8333H80.8335V75H76.6668V79.1667H72.5002V83.3333H68.3335V66.6667H64.1668V62.5H60.0002V58.3333H55.8335V54.1667H51.6668V29.1667H55.8335V25H60.0002V20.8333H64.1668V16.6667H105.834V20.8333H110V25H114.167V29.1667H118.334V54.1667Z" fill="#FAE100"/>
<path d="M4.5 63.6667V53.6667H7.83333V43.6667H11.1667V37H4.5V30.3333H24.5V37H17.8333V43.6667H21.1667V53.6667H24.5V63.6667H17.8333V57H11.1667V63.6667H4.5ZM41.1667 50.3333H37.8333V67H31.1667V30.3333H37.8333V43.6667H41.1667V50.3333ZM44.5 50.3333V37H57.8333V33.6667H44.5V30.3333H64.5V40.3333H51.1667V43.6667H67.8333V50.3333H44.5ZM74.5 63.6667V67H51.1667V63.6667H47.8333V57H51.1667V53.6667H74.5V57H77.8333V63.6667H74.5ZM81.1667 43.6667H77.8333V50.3333H71.1667V30.3333H77.8333V37H81.1667V43.6667ZM71.1667 60.3333V57H54.5V60.3333H71.1667ZM84.5 33.6667H94.5V30.3333H101.167V33.6667H111.167V30.3333H117.833V43.6667H121.167V50.3333H117.833V67H111.167V40.3333H84.5V33.6667ZM91.1667 60.3333H87.8333V47H91.1667V43.6667H104.5V47H107.833V60.3333H104.5V63.6667H91.1667V60.3333ZM94.5 50.3333V57H101.167V50.3333H94.5ZM124.5 63.6667V57H131.167V53.6667H134.5V47H137.833V37H124.5V30.3333H144.5V50.3333H141.167V57H137.833V60.3333H134.5V63.6667H124.5ZM151.167 67V30.3333H157.833V67H151.167Z" fill="#371D1E"/>
</svg>
