<svg width="137" height="45" viewBox="0 0 137 45" fill="none" xmlns="http://www.w3.org/2000/svg">
<path d="M0.909164 44.1953V0.195312H24.9092V8.19531H8.90916V16.1953H24.9092V24.1953H8.90916V36.1953H24.9092V44.1953H0.909164ZM28.8935 44.1953V12.1953H36.8935V16.1953H40.8935V12.1953H52.8935V16.1953H56.8935V44.1953H48.8935V20.1953H40.8935V24.1953H36.8935V44.1953H28.8935ZM60.9092 20.1953V12.1953H64.9092V4.19531H72.9092V12.1953H80.9092V20.1953H72.9092V36.1953H80.9092V44.1953H68.9092V40.1953H64.9092V20.1953H60.9092ZM84.9092 40.1953V16.1953H88.9092V12.1953H108.909V16.1953H112.909V32.1953H92.9092V36.1953H112.909V44.1953H88.9092V40.1953H84.9092ZM92.9092 24.1953H104.909V20.1953H92.9092V24.1953ZM116.925 44.1953V12.1953H124.925V16.1953H128.925V12.1953H136.925V20.1953H128.925V24.1953H124.925V44.1953H116.925Z" fill="white"/>
</svg>
